<svg width="124" height="73" viewBox="0 0 124 73" fill="none" xmlns="http://www.w3.org/2000/svg">
<path d="M94.6795 0.551994C103.725 0.551994 110.808 3.28266 115.928 8.744C121.133 14.2053 123.736 21.672 123.736 31.144V73H98.6475V34.472C98.6475 30.632 97.5808 27.6453 95.4475 25.512C93.3142 23.3787 90.4128 22.312 86.7435 22.312C83.0742 22.312 80.1728 23.3787 78.0395 25.512C75.9062 27.6453 74.8395 30.632 74.8395 34.472V73H49.7515V34.472C49.7515 30.632 48.6848 27.6453 46.5515 25.512C44.5035 23.3787 41.6448 22.312 37.9755 22.312C34.2208 22.312 31.2768 23.3787 29.1435 25.512C27.0102 27.6453 25.9435 30.632 25.9435 34.472V73H0.8555V1.19199H25.9435V10.664C28.1622 7.592 31.0208 5.16 34.5195 3.368C38.1035 1.49066 42.1995 0.551994 46.8075 0.551994C52.0982 0.551994 56.7915 1.70399 60.8875 4.008C65.0688 6.312 68.3542 9.55466 70.7435 13.736C73.3035 9.81067 76.6742 6.65333 80.8555 4.264C85.0368 1.78933 89.6448 0.551994 94.6795 0.551994Z" fill="white"/>
</svg>
